<svg xmlns="http://www.w3.org/2000/svg" viewBox="0 0 24 24" fill="#FFFFFF" width="24" height="24">
  <path d="M22.162 5.656a19.791 19.791 0 00-4.885-1.656.07.07 0 00-.073.035 13.933 13.933 0 00-.604 1.235 18.26 18.26 0 00-5.487 0 13.933 13.933 0 00-.604-1.235.07.07 0 00-.073-.035 19.791 19.791 0 00-4.885 1.656.064.064 0 00-.032.027C.533 9.693-.32 13.656.099 17.582a.08.08 0 00.031.055 19.908 19.908 0 005.993 3.03.07.07 0 00.076-.027 14.512 14.512 0 001.273-2.084.07.07 0 00-.038-.098 13.276 13.276 0 01-1.885-.885.07.07 0 01-.007-.118c.126-.094.252-.192.372-.291a.07.07 0 01.073-.01c3.927 1.793 8.18 1.793 12.061 0a.07.07 0 01.075.009c.12.099.246.197.372.291a.07.07 0 01-.006.118 13.276 13.276 0 01-1.886.885.07.07 0 00-.037.098 14.512 14.512 0 001.273 2.084.07.07 0 00.076.027 19.908 19.908 0 005.993-3.03.08.08 0 00.031-.055c.5-4.1-.781-8.063-3.869-11.899a.064.064 0 00-.032-.027zM8.02 15.331c-1.182 0-2.156-1.085-2.156-2.419 0-1.333.955-2.418 2.156-2.418 1.21 0 2.184 1.094 2.156 2.418 0 1.334-.955 2.419-2.156 2.419zm7.96 0c-1.182 0-2.156-1.085-2.156-2.419 0-1.333.955-2.418 2.156-2.418 1.21 0 2.184 1.094 2.156 2.418 0 1.334-.946 2.419-2.156 2.419z"/>
</svg> 