<svg width="192" height="192" viewBox="0 0 192 192" fill="none" xmlns="http://www.w3.org/2000/svg">
  <rect width="192" height="192" rx="24" fill="#1f2937"/>
  <path d="M96 32C88.268 32 82 38.268 82 46V96C82 103.732 88.268 110 96 110C103.732 110 110 103.732 110 96V46C110 38.268 103.732 32 96 32Z" fill="white"/>
  <path d="M96 118C107.598 118 118 107.598 118 96H128C128 112.569 114.569 126 98 126V136H94V126C77.431 126 64 112.569 64 96H74C74 107.598 84.402 118 96 118Z" fill="white"/>
  <path d="M96 150C97.1046 150 98 149.105 98 148V142C98 140.895 97.1046 140 96 140C94.8954 140 94 140.895 94 142V148C94 149.105 94.8954 150 96 150Z" fill="white"/>
</svg>
