<svg width="512" height="512" viewBox="0 0 512 512" fill="none" xmlns="http://www.w3.org/2000/svg">
  <rect width="512" height="512" rx="64" fill="#1f2937"/>
  <path d="M256 85.333C228.714 85.333 205.333 108.714 205.333 136V256C205.333 283.286 228.714 306.667 256 306.667C283.286 306.667 306.667 283.286 306.667 256V136C306.667 108.714 283.286 85.333 256 85.333Z" fill="white"/>
  <path d="M256 314.667C286.928 314.667 314.667 286.928 314.667 256H341.333C341.333 305.519 305.519 341.333 256 341.333V384H250.667V341.333C201.148 341.333 165.333 305.519 165.333 256H192C192 286.928 219.741 314.667 250.667 314.667H256Z" fill="white"/>
  <path d="M256 400C258.209 400 260 398.209 260 396V378.667C260 376.458 258.209 374.667 256 374.667C253.791 374.667 252 376.458 252 378.667V396C252 398.209 253.791 400 256 400Z" fill="white"/>
</svg>
